{"title":"Millenium 1, Men Who Hate Women 2009 DVDrip Klam","uid":6679831,"size":2104005082,"categoryP":"video","categoryS":"movies","magnet":"?xt=urn:btih:1754687feefa1a81dd3db021c1f93b66916acb36&amp;dn=Millenium+1%2C+Men+Who+Hate+Women+2009+DVDrip+Klam&amp;tr=udp%3A%2F%2Ftracker.openbittorrent.com%3A80&amp;tr=udp%3A%2F%2Fopen.demonii.com%3A1337&amp;tr=udp%3A%2F%2Ftracker.coppersurfer.tk%3A6969&amp;tr=udp%3A%2F%2Fexodus.desync.com%3A6969","seeders":1,"leechers":1,"uploader":"Klambake","files":-1,"time":1316164445,"description":"With: Michael Nyqvist, Peter Haber and Noomi Rapace\n\nOp 29 september 1966 is de 16 jaar oude Harriet Vanger spoorloos verdwenen. Nu, 40 jaar later, krijgt journalist Mikael Blomkvist een ongewone opdracht: hij wordt door grootindustrieel Henrik Vanger gevraagd de geschiedenis van zijn familie te schrijven. Wat hij eigenlijk wil is de waarheid achterhalen over Harriet. Mikael vindt dat hij wel even uit zijn sleur bij het tijdschrift kan komen en samen met computerdeskundige Lisbeth begint hij aan de opdracht. Ze graven dieper en dieper in het verleden van de familie en komen steeds donkerder geheimen tegen.\n\nA journalist is aided in his search for a woman who has been missing -- or dead -- for forty years by a young female hacker. \n\n------------------ Dutch Friends ------------------\nYou can find my Friends at: http://www.Film-Test.nl \n------ They got my dutchs subs ---- and more ------\n\nGeneral:\n\nComplete name                    : Millenium 1\\Millenium 1.avi\nFormat                           : AVI\nFormat/Info                      : Audio Video Interleave\nFile size                        : 1.96 GiB\nDuration                         : 2h 26mn\nOverall bit rate                 : 1 915 Kbps\n\nVideo:\n\nFormat                           : MPEG-4 Visual\nFormat profile                   : Simple@L3\nFormat settings, BVOP            : No\nFormat settings, QPel            : No\nFormat settings, GMC             : No warppoints\nFormat settings, Matrix          : Default (H.263)\nCodec ID                         : XVID\nCodec ID/Hint                    : XviD\nDuration                         : 2h 26mn\nBit rate                         : 1 456 Kbps\nWidth                            : 720 pixels\nHeight                           : 304 pixels\nDisplay aspect ratio             : 2.35:1\nFrame rate                       : 25.000 fps\nColor space                      : YUV\nChroma subsampling               : 4:2:0\nBit depth                        : 8 bits\nScan type                        : Progressive\nBits/(Pixel*Frame)               : 0.266\nStream size                      : 1.49 GiB (76%)\nWriting library                  : XviD 1.1.2 (UTC 2006-11-01)\n\nAudio:\n\nFormat                           : AC-3\nFormat/Info                      : Audio Coding 3\nMode extension                   : CM (complete main)\nCodec ID                         : 2000\nDuration                         : 2h 26mn\nBit rate mode                    : Constant\nBit rate                         : 448 Kbps\nChannel(s)                       : 6 channels\nChannel positions                : Front: L C R, Side: L R, LFE\nSampling rate                    : 48.0 KHz\nBit depth                        : 16 bits\nStream size                      : 469 MiB (23%)\nAlignment                        : Aligned on interleaves\nInterleave, duration             : 32 ms (0.80 video frame)\n\n","torrent":{"xt":"urn:btih:1754687feefa1a81dd3db021c1f93b66916acb36","amp;dn":"Millenium+1%2C+Men+Who+Hate+Women+2009+DVDrip+Klam","amp;tr":["udp%3A%2F%2Ftracker.openbittorrent.com%3A80","udp%3A%2F%2Fopen.demonii.com%3A1337","udp%3A%2F%2Ftracker.coppersurfer.tk%3A6969","udp%3A%2F%2Fexodus.desync.com%3A6969"],"infoHash":"1754687feefa1a81dd3db021c1f93b66916acb36","infoHashBuffer":{"type":"Buffer","data":[23,84,104,127,238,250,26,129,221,61,176,33,193,249,59,102,145,106,203,54]},"announce":[],"urlList":[]}}